<?xml version="1.0" encoding="UTF-8"?>
<svg id="Capa_2" data-name="Capa 2" xmlns="http://www.w3.org/2000/svg" viewBox="0 0 35.51 36.05">
  <defs>
    <style>
      .cls-1 {
        fill: none;
        stroke: currentColor;
        stroke-width: 2.5px;
      }

      .cls-1, .cls-2 {
        stroke-miterlimit: 10;
      }

      .cls-2 {
        stroke: currentColor;
        stroke-width: 4px;
      }
    </style>
  </defs>
  <g id="Capa_1-2" data-name="Capa 1">
    <rect class="cls-2" x="2" y="2" width="31.51" height="32.05" rx="5.01" ry="5.01"/>
    <line class="cls-1" x1="22.08" y1="29.05" x2="23.8" y2="29.05"/>
    <path class="cls-1" d="M20.44,7.91l9.54,9.3c-.02.63.06,3.81,0,5.82-.13,4.34-3.28,5.89-6.28,6.01"/>
    <line class="cls-1" x1="14.84" y1="24.61" x2="14.84" y2="20.02"/>
    <path class="cls-1" d="M14.84,21.13v-3.84c0-1.99.93-3.95,2.69-5.7l4.16-4.12"/>
    <path class="cls-1" d="M5.57,28.87l8.01.04c-.44,0,.15,0,.54-.02,3.09-.12,6.33-1.63,6.47-5.86.06-1.96-.02-5.07,0-5.68"/>
    <path class="cls-1" d="M6.7,30.01v-13.06l11.89-11.94"/>
  </g>
</svg>
